<?xml version="1.0" encoding="UTF-8" standalone="no"?>
<svg width="27px" height="27px" viewBox="0 0 27 27" version="1.1" xmlns="http://www.w3.org/2000/svg" xmlns:xlink="http://www.w3.org/1999/xlink">
    <!-- Generator: Sketch 42 (36781) - http://www.bohemiancoding.com/sketch -->
    <title>dribbble-icon</title>
    <desc>Created with Sketch.</desc>
    <defs></defs>
    <g id="Page-7" stroke="none" stroke-width="1" fill="none" fill-rule="evenodd">
        <g id="dribbble-icon" fill="#4A4A4A">
            <path d="M16.5714286,20.5580357 C16.2276769,18.5855556 15.6547659,16.5476296 14.8526786,14.4441964 L14.828125,14.4441964 L14.8035714,14.4564732 C14.6726184,14.5055806 14.4966529,14.5731022 14.2756696,14.6590402 C14.0546864,14.7449781 13.6413721,14.9454969 13.0357143,15.2606027 C12.4300565,15.5757084 11.8694222,15.9112705 11.3537946,16.2672991 C10.8381671,16.6233277 10.3020861,17.091887 9.74553571,17.6729911 C9.18898531,18.2540952 8.76748655,18.8597439 8.48102679,19.4899554 L8.296875,19.3549107 C9.80283491,20.5825954 11.5133833,21.1964286 13.4285714,21.1964286 C14.508934,21.1964286 15.5565425,20.9836331 16.5714286,20.5580357 Z M14.3002232,13.1060268 C14.1283474,12.7049831 13.9114596,12.2507466 13.6495536,11.7433036 C11.1041539,12.5044681 8.35008922,12.8850446 5.38727679,12.8850446 C5.37909222,12.9423366 5.375,13.0282732 5.375,13.1428571 C5.375,14.1577432 5.55505772,15.1255534 5.91517857,16.046317 C6.27529942,16.9670805 6.78273482,17.791663 7.4375,18.5200893 C7.84672824,17.791663 8.35211753,17.1103082 8.95368304,16.4760045 C9.55524854,15.8417007 10.13839,15.3322192 10.703125,14.9475446 C11.26786,14.5628701 11.8018948,14.2314002 12.3052455,13.953125 C12.8085963,13.6748498 13.2157723,13.4784232 13.5267857,13.3638393 L13.9810268,13.2042411 C14.013765,13.1960565 14.0669639,13.1817337 14.140625,13.1612723 C14.2142861,13.1408109 14.267485,13.1223959 14.3002232,13.1060268 Z M12.9866071,10.5033482 C12.0044594,8.76003593 11.0059575,7.2131764 9.99107143,5.86272321 C8.8616015,6.39471992 7.90402179,7.15587302 7.11830357,8.14620536 C6.33258536,9.13653769 5.80878107,10.2496218 5.546875,11.4854911 C8.01861355,11.4854911 10.4984995,11.1581134 12.9866071,10.5033482 Z M21.3839286,14.4196429 C19.66517,13.928569 17.9914516,13.8098946 16.3627232,14.0636161 C17.0747803,16.019727 17.5985846,17.9389787 17.9341518,19.8214286 C18.8426385,19.2075862 19.5996994,18.4321103 20.2053571,17.4949777 C20.8110149,16.557845 21.2038681,15.5327437 21.3839286,14.4196429 Z M11.5011161,5.32254464 C11.4929315,5.32254464 11.4847471,5.32663686 11.4765625,5.33482143 C11.4847471,5.32663686 11.4929315,5.32254464 11.5011161,5.32254464 Z M18.7444196,7.10267857 C17.2302752,5.76040996 15.4583435,5.08928571 13.4285714,5.08928571 C12.8065445,5.08928571 12.1722503,5.16703791 11.5256696,5.32254464 C12.5978476,6.71392065 13.604534,8.27714906 14.5457589,10.0122768 C15.1104939,9.7994781 15.6424826,9.55189873 16.1417411,9.26953125 C16.6409995,8.98716377 17.0358988,8.73549218 17.3264509,8.51450893 C17.6170029,8.29352568 17.8850434,8.06026908 18.1305804,7.81473214 C18.3761173,7.5691952 18.5295756,7.40346025 18.5909598,7.31752232 L18.7444196,7.10267857 Z M21.4821429,13.0569196 C21.4575892,11.1581006 20.8478482,9.48029002 19.6529018,8.0234375 L19.640625,8.03571429 C19.5669639,8.13392906 19.4892117,8.23418848 19.4073661,8.33649554 C19.3255204,8.43880259 19.1475088,8.62090643 18.8733259,8.8828125 C18.599143,9.14471857 18.3085953,9.39229794 18.0016741,9.62555804 C17.6947529,9.85881813 17.2855308,10.1248125 16.7739955,10.4235491 C16.2624602,10.7222857 15.7243332,10.986234 15.1595982,11.2154018 C15.3642123,11.6491837 15.5442701,12.0379447 15.6997768,12.3816964 C15.7161459,12.4308038 15.7427454,12.5024177 15.7795759,12.5965402 C15.8164064,12.6906627 15.8470981,12.7581843 15.8716518,12.7991071 C16.1662961,12.7581843 16.4711666,12.7295388 16.7862723,12.7131696 C17.1013781,12.6968005 17.4021563,12.6886161 17.6886161,12.6886161 C17.9750758,12.6886161 18.2574391,12.6947544 18.5357143,12.7070312 C18.8139895,12.7193081 19.0758916,12.735677 19.3214286,12.7561384 C19.5669655,12.7765998 19.798176,12.799107 20.015067,12.8236607 C20.2319579,12.8482144 20.4283845,12.8748138 20.6043527,12.9034598 C20.7803208,12.9321058 20.9296869,12.9566591 21.0524554,12.9771205 C21.1752238,12.9975819 21.2775294,13.0159969 21.359375,13.0323661 L21.4821429,13.0569196 Z M22.8571429,13.1428571 C22.8571429,14.8534312 22.4356441,16.4309824 21.5926339,17.875558 C20.7496238,19.3201337 19.605848,20.4639095 18.1612723,21.3069196 C16.7166966,22.1499298 15.1391455,22.5714286 13.4285714,22.5714286 C11.7179974,22.5714286 10.1404462,22.1499298 8.69587054,21.3069196 C7.25129486,20.4639095 6.1075191,19.3201337 5.26450893,17.875558 C4.42149876,16.4309824 4,14.8534312 4,13.1428571 C4,11.4322831 4.42149876,9.85473193 5.26450893,8.41015625 C6.1075191,6.96558057 7.25129486,5.82180481 8.69587054,4.97879464 C10.1404462,4.13578448 11.7179974,3.71428571 13.4285714,3.71428571 C15.1391455,3.71428571 16.7166966,4.13578448 18.1612723,4.97879464 C19.605848,5.82180481 20.7496238,6.96558057 21.5926339,8.41015625 C22.4356441,9.85473193 22.8571429,11.4322831 22.8571429,13.1428571 Z" id="-copy"></path>
        </g>
    </g>
</svg>