<?xml version="1.0" encoding="UTF-8" standalone="no"?>
<svg width="27px" height="27px" viewBox="0 0 27 27" version="1.1" xmlns="http://www.w3.org/2000/svg" xmlns:xlink="http://www.w3.org/1999/xlink">
    <!-- Generator: Sketch 42 (36781) - http://www.bohemiancoding.com/sketch -->
    <title>linkedin-icon</title>
    <desc>Created with Sketch.</desc>
    <defs></defs>
    <g id="Page-7" stroke="none" stroke-width="1" fill="none" fill-rule="evenodd">
        <g id="linkedin-icon" fill="#4A4A4A">
            <path d="M8.28459821,9.85602679 L8.28459821,22.0223214 L4.23325893,22.0223214 L4.23325893,9.85602679 L8.28459821,9.85602679 Z M8.54241071,6.09933036 C8.55059528,6.69680358 8.34393812,7.19605454 7.92243304,7.59709821 C7.50092795,7.99814189 6.94643201,8.19866071 6.25892857,8.19866071 L6.234375,8.19866071 C5.56324069,8.19866071 5.02306752,7.99814189 4.61383929,7.59709821 C4.20461105,7.19605454 4,6.69680358 4,6.09933036 C4,5.49367257 4.21074938,4.9923755 4.63225446,4.59542411 C5.05375955,4.19847272 5.60416327,4 6.28348214,4 C6.96280102,4 7.50706641,4.19847272 7.91629464,4.59542411 C8.32552288,4.9923755 8.53422615,5.49367257 8.54241071,6.09933036 Z M14.5580357,11.5848921 C14.7139408,11.3391717 14.8735375,11.1230043 15.0368304,10.9363839 C15.2087062,10.7399544 15.4399167,10.5271589 15.7304688,10.2979911 C16.0210208,10.0688233 16.377044,9.89081165 16.7985491,9.76395089 C17.2200542,9.63709014 17.6886135,9.57366071 18.2042411,9.57366071 C19.6038016,9.57366071 20.7291624,10.0381278 21.5803571,10.9670759 C22.4315519,11.896024 22.8571429,13.2566875 22.8571429,15.0491071 L22.8571429,22.0223214 L18.8180804,22.0223214 L18.8180804,15.515625 C18.8180804,14.6562457 18.6523454,13.9830754 18.3208705,13.4960938 C17.9893957,13.0091121 17.4717297,12.765625 16.7678571,12.765625 C16.2522296,12.765625 15.8205003,12.9068066 15.4726562,13.1891741 C15.1248122,13.4715416 14.8649562,13.8214265 14.6930804,14.2388393 C14.6030501,14.4843762 14.5580357,14.8158461 14.5580357,15.2332589 L14.5580357,22.0223214 L10.5189732,22.0223214 C10.5353423,18.7566801 10.5435268,16.1090131 10.5435268,14.0792411 C10.5435268,12.049469 10.5394346,10.8381716 10.53125,10.4453125 L10.5189732,9.85602679 L14.5580357,9.85602679 L14.5580357,11.5848921 L14.5580357,11.5848921 Z" id="-copy"></path>
        </g>
    </g>
</svg>