<?xml version="1.0" encoding="UTF-8" standalone="no"?>
<svg width="24px" height="18px" viewBox="0 0 24 18" version="1.1" xmlns="http://www.w3.org/2000/svg" xmlns:xlink="http://www.w3.org/1999/xlink">
    <!-- Generator: Sketch 42 (36781) - http://www.bohemiancoding.com/sketch -->
    <title>a.</title>
    <desc>Created with Sketch.</desc>
    <defs></defs>
    <g id="FINAL" stroke="none" stroke-width="1" fill="none" fill-rule="evenodd">
        <g id="iPhone-7" transform="translate(-30.000000, -33.000000)" fill="#D8AE7C">
            <path d="M38.3871875,34.40625 C37.9653104,33.8958308 37.3064628,33.640625 36.410625,33.640625 C35.9939563,33.640625 35.5772938,33.7057285 35.160625,33.8359375 C34.7439563,33.9661465 34.4002097,34.161457 34.129375,34.421875 C34.723128,34.6197927 35.186665,34.9296854 35.52,35.3515625 C35.853335,35.7734396 36.02,36.3020802 36.02,36.9375 C36.02,37.3750022 35.9132302,37.7682274 35.6996875,38.1171875 C35.4861448,38.4661476 35.1814603,38.7421865 34.785625,38.9453125 C34.3897897,39.1484385 33.9366692,39.25 33.42625,39.25 C32.7387466,39.25 32.1892729,39.0156273 31.7778125,38.546875 C31.3663521,38.0781227 31.160625,37.4895869 31.160625,36.78125 C31.160625,35.6770778 31.7543691,34.7812534 32.941875,34.09375 C34.2439649,33.3749964 35.8689486,33.015625 37.816875,33.015625 C40.0043859,33.015625 41.561662,33.4947869 42.48875,34.453125 C42.9366689,34.9010439 43.2387492,35.45833 43.395,36.125 C43.5512508,36.79167 43.629375,37.7239523 43.629375,38.921875 L43.629375,47.625 C43.629375,48.1458359 43.6788537,48.5130198 43.7778125,48.7265625 C43.8767713,48.9401052 44.0512488,49.046875 44.30125,49.046875 C44.6450017,49.046875 45.0408311,48.8645852 45.48875,48.5 L45.816875,49.046875 C45.3272892,49.453127 44.7960445,49.7499991 44.223125,49.9375 C43.6502055,50.1250009 42.9627124,50.21875 42.160625,50.21875 C41.0772863,50.21875 40.2960441,49.9791691 39.816875,49.5 C39.3377059,49.0208309 39.098125,48.3958372 39.098125,47.625 C38.5772891,48.4895877 37.8950042,49.1380187 37.05125,49.5703125 C36.2074958,50.0026063 35.3064631,50.21875 34.348125,50.21875 C33.1293689,50.21875 32.1528162,49.8984407 31.4184375,49.2578125 C30.6840588,48.6171843 30.316875,47.7239641 30.316875,46.578125 C30.316875,45.4635361 30.6814547,44.5416703 31.410625,43.8125 C32.1397953,43.0833297 33.2699924,42.4375028 34.80125,41.875 C34.9679175,41.8124997 35.5095788,41.6067726 36.42625,41.2578125 C37.3429213,40.9088524 38.004373,40.5520852 38.410625,40.1875 C38.816877,39.8229148 39.02,39.4218772 39.02,38.984375 L39.02,36.5 C39.02,35.6145789 38.8090646,34.9166692 38.3871875,34.40625 Z M38.3559375,41.0078125 C38.0486443,41.2526054 37.6085445,41.5520816 37.035625,41.90625 C36.3585383,42.3750023 35.8272936,42.9036429 35.441875,43.4921875 C35.0564564,44.0807321 34.86375,44.8124956 34.86375,45.6875 C34.86375,46.5208375 35.0460399,47.1432271 35.410625,47.5546875 C35.7752102,47.9661479 36.254372,48.171875 36.848125,48.171875 C37.6918792,48.171875 38.4158303,47.7343794 39.02,46.859375 L39.02,40.296875 C38.8845827,40.5260428 38.6632307,40.7630196 38.3559375,41.0078125 Z M52.765625,46.1796875 C53.2552108,46.622398 53.5,47.2239545 53.5,47.984375 C53.5,48.7447955 53.2552108,49.346352 52.765625,49.7890625 C52.2760392,50.231773 51.6093792,50.453125 50.765625,50.453125 C49.9322875,50.453125 49.2708358,50.231773 48.78125,49.7890625 C48.2916642,49.346352 48.046875,48.7447955 48.046875,47.984375 C48.046875,47.2239545 48.2916642,46.622398 48.78125,46.1796875 C49.2708358,45.736977 49.9322875,45.515625 50.765625,45.515625 C51.6093792,45.515625 52.2760392,45.736977 52.765625,46.1796875 Z" id="a."></path>
        </g>
    </g>
</svg>