<?xml version="1.0" encoding="UTF-8" standalone="no"?>
<svg width="40px" height="40px" viewBox="0 0 40 40" version="1.1" xmlns="http://www.w3.org/2000/svg" xmlns:xlink="http://www.w3.org/1999/xlink">
    <!-- Generator: Sketch 42 (36781) - http://www.bohemiancoding.com/sketch -->
    <title>Portfolio_Logo</title>
    <desc>Created with Sketch.</desc>
    <defs>
        <rect id="path-1" x="0" y="0" width="40" height="40"></rect>
        <mask id="mask-2" maskContentUnits="userSpaceOnUse" maskUnits="objectBoundingBox" x="0" y="0" width="40" height="40" fill="white">
            <use xlink:href="#path-1"></use>
        </mask>
    </defs>
    <g id="V2" stroke="none" stroke-width="1" fill="none" fill-rule="evenodd">
        <g id="Portfolio_Logo">
            <path d="M13.96,19.3 C14.7333372,19.3 15.6266616,19.4266654 16.64,19.68 L16.64,18.72 C16.64,18.0399966 16.5033347,17.5366683 16.23,17.21 C15.9566653,16.8833317 15.5100031,16.72 14.89,16.72 C14.2699969,16.72 13.793335,16.8433321 13.46,17.09 C13.126665,17.3366679 12.96,17.6866644 12.96,18.14 L10.38,18.14 C10.38,17.0333278 10.7699961,16.2333358 11.55,15.74 C12.3300039,15.2466642 13.419993,15 14.82,15 C16.82001,15 18.1133304,15.699993 18.7,17.1 C18.900001,17.5800024 19,18.1466634 19,18.8 L19,24.98 L16.94,24.98 L16.76,23.68 C16.1333302,24.7333386 15.1733398,25.26 13.88,25.26 C12.6266604,25.26 11.6533368,24.9533364 10.96,24.34 C10.3199968,23.7533304 10,23.0100045 10,22.11 C10,21.2099955 10.3533298,20.5166691 11.06,20.03 C11.7666702,19.5433309 12.7333272,19.3 13.96,19.3 Z M16.64,21.18 C15.8533294,20.9666656 15.1200034,20.86 14.44,20.86 C13.1599936,20.86 12.52,21.2866624 12.52,22.14 C12.52,22.5000018 12.6666652,22.8099987 12.96,23.07 C13.2533348,23.3300013 13.7233301,23.46 14.37,23.46 C15.0166699,23.46 15.5499979,23.2433355 15.97,22.81 C16.3900021,22.3766645 16.6133332,21.8333366 16.64,21.18 Z M21.92,23.06 L26.96,17.18 L21.92,17.18 L21.92,15.26 L29.56,15.26 L29.56,17.18 L24.68,23.06 L29.56,23.06 L29.56,24.98 L21.92,24.98 L21.92,23.06 Z" id="az" fill="#F85563"></path>
            <use id="Rectangle-2" stroke="#F85563" mask="url(#mask-2)" stroke-width="4" xlink:href="#path-1"></use>
        </g>
    </g>
</svg>